<mxfile host="app.diagrams.net" agent="Mozilla/5.0 (Windows NT 10.0; Win64; x64) AppleWebKit/537.36 (KHTML, like Gecko) Chrome/128.0.0.0 Safari/537.36" version="24.7.13">
  <diagram name="페이지-1" id="6aw2M1E4y64dNc1100PF">
    <mxGraphModel dx="1195" dy="643" grid="1" gridSize="10" guides="1" tooltips="1" connect="1" arrows="1" fold="1" page="1" pageScale="1" pageWidth="827" pageHeight="1169" math="0" shadow="0">
      <root>
        <mxCell id="0" />
        <mxCell id="1" parent="0" />
        <mxCell id="C9ntUFuA4X-yzAEyJdpu-21" value="백승현&lt;br&gt;(24.7.1 ~ 9.12)" style="html=1;whiteSpace=wrap;" parent="1" vertex="1">
          <mxGeometry x="352.25" y="90" width="91" height="40" as="geometry" />
        </mxCell>
        <mxCell id="C9ntUFuA4X-yzAEyJdpu-23" value="AMS" style="html=1;whiteSpace=wrap;" parent="1" vertex="1">
          <mxGeometry x="480" y="180" width="81" height="40" as="geometry" />
        </mxCell>
        <mxCell id="C9ntUFuA4X-yzAEyJdpu-24" value="BTP" style="html=1;whiteSpace=wrap;" parent="1" vertex="1">
          <mxGeometry x="240" y="180" width="81" height="40" as="geometry" />
        </mxCell>
        <mxCell id="C9ntUFuA4X-yzAEyJdpu-25" value="" style="strokeWidth=2;html=1;shape=mxgraph.flowchart.annotation_2;align=left;labelPosition=right;pointerEvents=1;rotation=90;" parent="1" vertex="1">
          <mxGeometry x="374.5" y="37.5" width="50" height="237" as="geometry" />
        </mxCell>
        <mxCell id="C9ntUFuA4X-yzAEyJdpu-28" value="" style="strokeWidth=2;html=1;shape=mxgraph.flowchart.annotation_2;align=left;labelPosition=right;pointerEvents=1;rotation=90;" parent="1" vertex="1">
          <mxGeometry x="494" y="195" width="50" height="100" as="geometry" />
        </mxCell>
        <mxCell id="C9ntUFuA4X-yzAEyJdpu-29" value="직방 CO/PS&lt;br&gt;(8.29~)" style="html=1;whiteSpace=wrap;" parent="1" vertex="1">
          <mxGeometry x="432" y="269" width="81" height="40" as="geometry" />
        </mxCell>
        <mxCell id="C9ntUFuA4X-yzAEyJdpu-30" value="SM / 우성" style="html=1;whiteSpace=wrap;" parent="1" vertex="1">
          <mxGeometry x="530" y="269" width="81" height="40" as="geometry" />
        </mxCell>
        <mxCell id="C9ntUFuA4X-yzAEyJdpu-40" value="" style="strokeWidth=2;html=1;shape=mxgraph.flowchart.annotation_2;align=left;labelPosition=right;pointerEvents=1;rotation=90;points=[[0,0.5,0,0,0],[0.5,0,0,0,0],[0.5,0.5,0,0,0],[0.5,1,0,0,0],[1,0,0,0,0],[1,1,0,0,0]];" parent="1" vertex="1">
          <mxGeometry x="201.44" y="180.44" width="158.12" height="237" as="geometry" />
        </mxCell>
        <mxCell id="C9ntUFuA4X-yzAEyJdpu-41" value="&lt;b&gt;BTP Cell&lt;/b&gt;&lt;br&gt;RAP Education Materials" style="html=1;whiteSpace=wrap;" parent="1" vertex="1">
          <mxGeometry x="90" y="377.44" width="140" height="40" as="geometry" />
        </mxCell>
        <mxCell id="C9ntUFuA4X-yzAEyJdpu-44" value="5 Service Requests" style="shape=partialRectangle;fillColor=none;align=left;verticalAlign=middle;strokeColor=none;spacingLeft=34;rotatable=0;points=[[0,0.5],[1,0.5]];portConstraint=eastwest;dropTarget=0;fontSize=8;fontStyle=1" parent="1" vertex="1">
          <mxGeometry x="414" y="309" width="90" height="41" as="geometry" />
        </mxCell>
        <mxCell id="C9ntUFuA4X-yzAEyJdpu-45" value="" style="shape=partialRectangle;top=0;left=0;bottom=0;fillColor=none;stokeWidth=1;dashed=1;align=left;verticalAlign=middle;spacingLeft=4;spacingRight=4;overflow=hidden;rotatable=0;points=[];portConstraint=eastwest;part=1;" parent="C9ntUFuA4X-yzAEyJdpu-44" vertex="1" connectable="0">
          <mxGeometry width="30" height="41" as="geometry" />
        </mxCell>
        <mxCell id="C9ntUFuA4X-yzAEyJdpu-46" value="8 Service Requests &#xa; × 1 New Program&#xa; × 7 Revision" style="shape=partialRectangle;fillColor=none;align=left;verticalAlign=middle;strokeColor=none;spacingLeft=34;rotatable=0;points=[[0,0.5],[1,0.5]];portConstraint=eastwest;dropTarget=0;fontSize=8;fontStyle=1" parent="1" vertex="1">
          <mxGeometry x="510" y="309" width="90" height="41" as="geometry" />
        </mxCell>
        <mxCell id="C9ntUFuA4X-yzAEyJdpu-47" value="" style="shape=partialRectangle;top=0;left=0;bottom=0;fillColor=none;stokeWidth=1;dashed=1;align=left;verticalAlign=middle;spacingLeft=4;spacingRight=4;overflow=hidden;rotatable=0;points=[];portConstraint=eastwest;part=1;" parent="C9ntUFuA4X-yzAEyJdpu-46" vertex="1" connectable="0">
          <mxGeometry width="30" height="41" as="geometry" />
        </mxCell>
        <mxCell id="C9ntUFuA4X-yzAEyJdpu-54" value="" style="endArrow=none;dashed=1;html=1;strokeWidth=1;rounded=0;entryX=0.352;entryY=0.096;entryDx=0;entryDy=0;entryPerimeter=0;" parent="1" edge="1">
          <mxGeometry width="50" height="50" relative="1" as="geometry">
            <mxPoint x="108" y="1253.0133333333333" as="sourcePoint" />
            <mxPoint x="110.65000000000006" y="379.99999999999994" as="targetPoint" />
          </mxGeometry>
        </mxCell>
        <mxCell id="C9ntUFuA4X-yzAEyJdpu-55" value="&lt;span style=&quot;font-size: 10px; text-wrap: nowrap;&quot;&gt;&lt;b&gt;RAP Overview&amp;nbsp;&lt;/b&gt;&lt;/span&gt;&lt;span style=&quot;text-wrap: nowrap; background-color: initial;&quot;&gt;&lt;b&gt;..................[Completed&lt;/b&gt;&lt;/span&gt;&lt;span style=&quot;text-wrap: nowrap; background-color: initial;&quot;&gt;&lt;b&gt;]&lt;/b&gt;&lt;/span&gt;&lt;span style=&quot;font-size: 9px; text-wrap: nowrap;&quot;&gt;&lt;b&gt;&amp;nbsp;&lt;/b&gt; &amp;nbsp;&lt;br&gt;&amp;nbsp; &amp;nbsp;× ABAP Programming History&lt;/span&gt;&lt;br style=&quot;padding: 0px; margin: 0px; font-size: 9px; text-wrap: nowrap;&quot;&gt;&lt;span style=&quot;font-size: 9px; text-wrap: nowrap;&quot;&gt;&amp;nbsp; &amp;nbsp;× RAP Architecture &amp;amp; Concept&lt;br&gt;&lt;/span&gt;&lt;div&gt;&lt;span style=&quot;text-wrap: nowrap; background-color: initial;&quot;&gt;&amp;nbsp; &amp;nbsp;×&lt;/span&gt;&lt;span style=&quot;text-wrap: nowrap; background-color: initial;&quot;&gt;&amp;nbsp;RAP Objects&lt;/span&gt;&lt;span style=&quot;font-size: 9px; text-wrap: nowrap;&quot;&gt;&amp;nbsp;&lt;br&gt;&lt;/span&gt;&lt;span style=&quot;text-wrap: nowrap;&quot;&gt;&amp;nbsp; &amp;nbsp;× RAP Environments&lt;/span&gt;&lt;span style=&quot;font-size: 9px; text-wrap: nowrap;&quot;&gt;&amp;nbsp;&lt;br&gt;&lt;b&gt;ADT(Eclipse)&amp;nbsp;&lt;/b&gt;&lt;/span&gt;&lt;span style=&quot;text-wrap: nowrap; background-color: initial;&quot;&gt;&lt;b&gt;.......................[Completed&lt;/b&gt;&lt;/span&gt;&lt;span style=&quot;text-wrap: nowrap; background-color: initial;&quot;&gt;&lt;b&gt;]&lt;/b&gt;&lt;/span&gt;&lt;span style=&quot;font-size: 9px; text-wrap: nowrap;&quot;&gt;&lt;br&gt;&lt;/span&gt;&lt;span style=&quot;text-wrap: nowrap; background-color: initial;&quot;&gt;&amp;nbsp; &amp;nbsp;×&lt;/span&gt;&lt;span style=&quot;text-wrap: nowrap; background-color: initial;&quot;&gt;&amp;nbsp;Eclipse Setup&lt;/span&gt;&lt;span style=&quot;text-wrap: nowrap;&quot;&gt;&lt;br&gt;&lt;/span&gt;&lt;span style=&quot;text-wrap: nowrap;&quot;&gt;&amp;nbsp; &amp;nbsp;× ABAP-Git Setup&lt;br&gt;&lt;/span&gt;&lt;span style=&quot;text-wrap: nowrap; background-color: initial;&quot;&gt;&amp;nbsp; &amp;nbsp;×&lt;/span&gt;&lt;span style=&quot;text-wrap: nowrap; background-color: initial;&quot;&gt;&amp;nbsp;TDD Connect&lt;br&gt;&lt;/span&gt;&lt;span style=&quot;text-wrap: nowrap; background-color: initial;&quot;&gt;&amp;nbsp; &amp;nbsp;×&lt;/span&gt;&lt;span style=&quot;text-wrap: nowrap; background-color: initial;&quot;&gt;&amp;nbsp;Base Guidelines &amp;amp; Shortcuts&lt;/span&gt;&lt;span style=&quot;font-size: 9px; text-wrap: nowrap;&quot;&gt;&lt;br&gt;&lt;/span&gt;&lt;/div&gt;&lt;div&gt;&lt;span style=&quot;text-wrap: nowrap;&quot;&gt;&lt;b&gt;CDS (Basics)&amp;nbsp;&lt;/b&gt;&lt;/span&gt;&lt;span style=&quot;background-color: initial; text-wrap: nowrap;&quot;&gt;&lt;b&gt;.......................[Completed&lt;/b&gt;&lt;/span&gt;&lt;span style=&quot;background-color: initial; text-wrap: nowrap;&quot;&gt;&lt;b&gt;]&lt;/b&gt;&lt;/span&gt;&lt;span style=&quot;text-wrap: nowrap; background-color: initial;&quot;&gt;&lt;br&gt;&lt;/span&gt;&lt;/div&gt;&lt;div&gt;&lt;span style=&quot;text-wrap: nowrap; background-color: initial;&quot;&gt;&amp;nbsp; &amp;nbsp;×&amp;nbsp;&lt;/span&gt;&lt;span style=&quot;background-color: initial; text-wrap: nowrap;&quot;&gt;CDS Basic syntax&lt;/span&gt;&lt;/div&gt;&lt;div&gt;&lt;span style=&quot;text-wrap: nowrap; background-color: initial;&quot;&gt;&amp;nbsp; &amp;nbsp;×&lt;/span&gt;&lt;span style=&quot;text-wrap: nowrap; background-color: initial;&quot;&gt;&amp;nbsp;Association&lt;/span&gt;&lt;span style=&quot;text-wrap: nowrap; background-color: initial;&quot;&gt;&lt;br&gt;&lt;/span&gt;&lt;/div&gt;&lt;div&gt;&lt;span style=&quot;text-wrap: nowrap; background-color: initial;&quot;&gt;&amp;nbsp; &amp;nbsp;×&lt;/span&gt;&lt;span style=&quot;text-wrap: nowrap; background-color: initial;&quot;&gt;&amp;nbsp;Annotation&lt;/span&gt;&lt;span style=&quot;text-wrap: nowrap; background-color: initial;&quot;&gt;&lt;br&gt;&lt;/span&gt;&lt;/div&gt;&lt;div&gt;&lt;span style=&quot;text-wrap: nowrap; background-color: initial;&quot;&gt;&amp;nbsp; &amp;nbsp;×&lt;/span&gt;&lt;span style=&quot;text-wrap: nowrap; background-color: initial;&quot;&gt;&amp;nbsp;Access Control&lt;/span&gt;&lt;span style=&quot;text-wrap: nowrap; background-color: initial;&quot;&gt;&lt;br&gt;&lt;/span&gt;&lt;/div&gt;&lt;div&gt;&lt;span style=&quot;text-wrap: nowrap; background-color: initial;&quot;&gt;&amp;nbsp; &amp;nbsp;×&lt;/span&gt;&lt;span style=&quot;text-wrap: nowrap; background-color: initial;&quot;&gt;&amp;nbsp;Table Function (with AMDP)&lt;/span&gt;&lt;span style=&quot;text-wrap: nowrap; background-color: initial;&quot;&gt;&lt;br&gt;&lt;/span&gt;&lt;/div&gt;&lt;div&gt;&lt;span style=&quot;text-wrap: nowrap; background-color: initial;&quot;&gt;&amp;nbsp; &amp;nbsp;×&lt;/span&gt;&lt;span style=&quot;text-wrap: nowrap; background-color: initial;&quot;&gt;&amp;nbsp;Custom Entity&lt;/span&gt;&lt;span style=&quot;text-wrap: nowrap; background-color: initial;&quot;&gt;&lt;br&gt;&lt;/span&gt;&lt;/div&gt;&lt;div&gt;&lt;span style=&quot;text-wrap: nowrap;&quot;&gt;&amp;nbsp; &amp;nbsp;× User Hands-on V1&lt;/span&gt;&lt;span style=&quot;text-wrap: nowrap; background-color: initial;&quot;&gt;&lt;br&gt;&lt;/span&gt;&lt;/div&gt;&lt;div&gt;&lt;span style=&quot;text-wrap: nowrap;&quot;&gt;&lt;b&gt;CDS (RAP)&amp;nbsp;&lt;/b&gt;&lt;/span&gt;&lt;span style=&quot;background-color: initial; text-wrap: nowrap;&quot;&gt;&lt;b&gt;...............................[Ongoing&lt;/b&gt;&lt;/span&gt;&lt;span style=&quot;background-color: initial; text-wrap: nowrap;&quot;&gt;&lt;b&gt;]&lt;/b&gt;&lt;/span&gt;&lt;span style=&quot;text-wrap: nowrap; background-color: initial;&quot;&gt;&lt;br&gt;&lt;/span&gt;&lt;/div&gt;&lt;div&gt;&lt;span style=&quot;text-wrap: nowrap;&quot;&gt;&amp;nbsp; &amp;nbsp;× Root View&lt;/span&gt;&lt;span style=&quot;text-wrap: nowrap;&quot;&gt;&lt;br&gt;&lt;/span&gt;&lt;/div&gt;&lt;div&gt;&lt;span style=&quot;text-wrap: nowrap;&quot;&gt;&amp;nbsp; &amp;nbsp;× Association/Composition for Entity&lt;/span&gt;&lt;span style=&quot;text-wrap: nowrap;&quot;&gt;&lt;br&gt;&lt;/span&gt;&lt;/div&gt;&lt;div&gt;&lt;span style=&quot;text-wrap: nowrap;&quot;&gt;&amp;nbsp; &amp;nbsp;× Projection View&lt;/span&gt;&lt;/div&gt;&lt;div&gt;&lt;span style=&quot;text-wrap: nowrap;&quot;&gt;&lt;b&gt;ABAP OO&amp;nbsp;&lt;/b&gt;&lt;/span&gt;&lt;span style=&quot;background-color: initial; text-wrap: nowrap;&quot;&gt;&lt;b&gt;.............................[Completed&lt;/b&gt;&lt;/span&gt;&lt;span style=&quot;background-color: initial; text-wrap: nowrap;&quot;&gt;&lt;b&gt;]&lt;/b&gt;&lt;/span&gt;&lt;/div&gt;&lt;div&gt;&lt;span style=&quot;text-wrap: nowrap;&quot;&gt;&amp;nbsp; &amp;nbsp;× OO Basics ( Class )&lt;/span&gt;&lt;/div&gt;&lt;div&gt;&lt;span style=&quot;text-wrap: nowrap;&quot;&gt;&amp;nbsp; &amp;nbsp;× Objects &amp;amp; Components&lt;/span&gt;&lt;span style=&quot;text-wrap: nowrap;&quot;&gt;&lt;br&gt;&lt;/span&gt;&lt;/div&gt;&lt;div&gt;&lt;span style=&quot;text-wrap: nowrap;&quot;&gt;&amp;nbsp; &amp;nbsp;× Reference&lt;/span&gt;&lt;span style=&quot;text-wrap: nowrap;&quot;&gt;&lt;br&gt;&lt;/span&gt;&lt;/div&gt;&lt;div&gt;&lt;span style=&quot;text-wrap: nowrap;&quot;&gt;&amp;nbsp; &amp;nbsp;× Inheritance&lt;/span&gt;&lt;span style=&quot;text-wrap: nowrap;&quot;&gt;&lt;br&gt;&lt;/span&gt;&lt;/div&gt;&lt;div&gt;&lt;span style=&quot;text-wrap: nowrap;&quot;&gt;&amp;nbsp; &amp;nbsp;× Polymorphism &amp;amp; Casting&lt;/span&gt;&lt;span style=&quot;text-wrap: nowrap;&quot;&gt;&lt;br&gt;&lt;/span&gt;&lt;/div&gt;&lt;div&gt;&lt;span style=&quot;text-wrap: nowrap;&quot;&gt;&amp;nbsp; &amp;nbsp;× Interfaces&lt;/span&gt;&lt;span style=&quot;text-wrap: nowrap;&quot;&gt;&lt;br&gt;&lt;/span&gt;&lt;/div&gt;&lt;div&gt;&lt;span style=&quot;text-wrap: nowrap;&quot;&gt;&amp;nbsp; &amp;nbsp;× Freindship&lt;/span&gt;&lt;span style=&quot;text-wrap: nowrap;&quot;&gt;&lt;br&gt;&lt;/span&gt;&lt;/div&gt;&lt;div&gt;&lt;span style=&quot;text-wrap: nowrap;&quot;&gt;&amp;nbsp; &amp;nbsp;× Events&lt;/span&gt;&lt;/div&gt;&lt;div&gt;&lt;span style=&quot;text-wrap: nowrap;&quot;&gt;&amp;nbsp; &amp;nbsp;× User Hands-on V1&lt;/span&gt;&lt;span style=&quot;text-wrap: nowrap;&quot;&gt;&lt;br&gt;&lt;/span&gt;&lt;/div&gt;&lt;div&gt;&lt;span style=&quot;text-wrap: nowrap;&quot;&gt;&lt;b&gt;Behavior Definition .............[&lt;/b&gt;&lt;/span&gt;&lt;b style=&quot;text-wrap: nowrap;&quot;&gt;Scheduled&lt;/b&gt;&lt;span style=&quot;text-wrap: nowrap;&quot;&gt;&lt;b&gt;]&lt;/b&gt;&lt;/span&gt;&lt;/div&gt;&lt;div&gt;&lt;span style=&quot;text-wrap: nowrap;&quot;&gt;&amp;nbsp; &amp;nbsp;× Behavior Basics&amp;nbsp;&lt;/span&gt;&lt;span style=&quot;text-wrap: nowrap;&quot;&gt;&lt;br&gt;&lt;/span&gt;&lt;/div&gt;&lt;div&gt;&lt;span style=&quot;text-wrap: nowrap;&quot;&gt;&amp;nbsp; &amp;nbsp;× Managed versus Unmanaged&lt;/span&gt;&lt;span style=&quot;text-wrap: nowrap;&quot;&gt;&lt;br&gt;&lt;/span&gt;&lt;/div&gt;&lt;div&gt;&lt;span style=&quot;text-wrap: nowrap;&quot;&gt;&amp;nbsp; &amp;nbsp;× Numbering&lt;/span&gt;&lt;/div&gt;&lt;div&gt;&lt;span style=&quot;text-wrap: nowrap;&quot;&gt;&amp;nbsp; &amp;nbsp;× Standard Operation&lt;/span&gt;&lt;span style=&quot;text-wrap: nowrap;&quot;&gt;&lt;br&gt;&lt;/span&gt;&lt;/div&gt;&lt;div&gt;&lt;span style=&quot;text-wrap: nowrap;&quot;&gt;&amp;nbsp; &amp;nbsp;× Actions&lt;/span&gt;&lt;span style=&quot;text-wrap: nowrap;&quot;&gt;&lt;br&gt;&lt;/span&gt;&lt;/div&gt;&lt;div&gt;&lt;span style=&quot;text-wrap: nowrap;&quot;&gt;&amp;nbsp; &amp;nbsp;× Functions&lt;/span&gt;&lt;span style=&quot;text-wrap: nowrap;&quot;&gt;&lt;br&gt;&lt;/span&gt;&lt;/div&gt;&lt;div&gt;&lt;span style=&quot;text-wrap: nowrap;&quot;&gt;&amp;nbsp; &amp;nbsp;× Locking&lt;/span&gt;&lt;span style=&quot;text-wrap: nowrap;&quot;&gt;&lt;br&gt;&lt;/span&gt;&lt;/div&gt;&lt;div&gt;&lt;span style=&quot;text-wrap: nowrap;&quot;&gt;&amp;nbsp; &amp;nbsp;× Determination&lt;/span&gt;&lt;span style=&quot;text-wrap: nowrap;&quot;&gt;&lt;br&gt;&lt;/span&gt;&lt;/div&gt;&lt;div&gt;&lt;span style=&quot;text-wrap: nowrap;&quot;&gt;&amp;nbsp; &amp;nbsp;× Validation&lt;/span&gt;&lt;span style=&quot;text-wrap: nowrap;&quot;&gt;&lt;br&gt;&lt;/span&gt;&lt;/div&gt;&lt;div&gt;&lt;span style=&quot;text-wrap: nowrap;&quot;&gt;&amp;nbsp; &amp;nbsp;× Authorization&lt;/span&gt;&lt;span style=&quot;text-wrap: nowrap;&quot;&gt;&lt;br&gt;&lt;/span&gt;&lt;/div&gt;&lt;div&gt;&lt;span style=&quot;text-wrap: nowrap;&quot;&gt;&amp;nbsp; &amp;nbsp;× Draft&lt;/span&gt;&lt;span style=&quot;text-wrap: nowrap;&quot;&gt;&lt;br&gt;&lt;/span&gt;&lt;/div&gt;&lt;div&gt;&lt;span style=&quot;text-wrap: nowrap;&quot;&gt;&amp;nbsp; &amp;nbsp;× Dynamic Feature Control&lt;/span&gt;&lt;span style=&quot;text-wrap: nowrap;&quot;&gt;&lt;br&gt;&lt;/span&gt;&lt;/div&gt;&lt;div&gt;&lt;span style=&quot;text-wrap: nowrap;&quot;&gt;&amp;nbsp; &amp;nbsp;× User Hands-on V1&lt;/span&gt;&lt;span style=&quot;text-wrap: nowrap;&quot;&gt;&lt;br&gt;&lt;/span&gt;&lt;/div&gt;&lt;div&gt;&lt;span style=&quot;text-wrap: nowrap;&quot;&gt;&amp;nbsp; &amp;nbsp;× User Hands-on V2&lt;/span&gt;&lt;span style=&quot;text-wrap: nowrap;&quot;&gt;&lt;br&gt;&lt;/span&gt;&lt;/div&gt;&lt;div&gt;&lt;b style=&quot;text-wrap: nowrap;&quot;&gt;EML .......................................[Scheduled]&lt;/b&gt;&lt;span style=&quot;text-wrap: nowrap;&quot;&gt;&lt;br&gt;&lt;/span&gt;&lt;/div&gt;&lt;div&gt;&lt;span style=&quot;text-wrap: nowrap;&quot;&gt;&amp;nbsp; &amp;nbsp;× Types &amp;amp; Parameters&lt;/span&gt;&lt;span style=&quot;text-wrap: nowrap;&quot;&gt;&lt;br&gt;&lt;/span&gt;&lt;/div&gt;&lt;div&gt;&lt;span style=&quot;text-wrap: nowrap;&quot;&gt;&amp;nbsp; &amp;nbsp;× READ ENTITIES&lt;/span&gt;&lt;span style=&quot;text-wrap: nowrap;&quot;&gt;&lt;br&gt;&lt;/span&gt;&lt;/div&gt;&lt;div&gt;&lt;span style=&quot;text-wrap: nowrap;&quot;&gt;&amp;nbsp; &amp;nbsp;× MODIFY ENTITIES&lt;/span&gt;&lt;span style=&quot;text-wrap: nowrap;&quot;&gt;&lt;br&gt;&lt;/span&gt;&lt;/div&gt;&lt;div&gt;&lt;span style=&quot;text-wrap: nowrap;&quot;&gt;&amp;nbsp; &amp;nbsp;× GET PERMISSION&amp;nbsp;&lt;/span&gt;&lt;span style=&quot;text-wrap: nowrap;&quot;&gt;&lt;br&gt;&lt;/span&gt;&lt;/div&gt;&lt;div&gt;&lt;span style=&quot;text-wrap: nowrap;&quot;&gt;&amp;nbsp; &amp;nbsp;× SET LOCKS&amp;nbsp;&lt;/span&gt;&lt;span style=&quot;text-wrap: nowrap;&quot;&gt;&lt;br&gt;&lt;/span&gt;&lt;/div&gt;&lt;div&gt;&lt;span style=&quot;text-wrap: nowrap;&quot;&gt;&amp;nbsp; &amp;nbsp;× COMMIT ENTITIES&lt;/span&gt;&lt;span style=&quot;text-wrap: nowrap;&quot;&gt;&lt;br&gt;&lt;/span&gt;&lt;/div&gt;&lt;div&gt;&lt;span style=&quot;text-wrap: nowrap;&quot;&gt;&amp;nbsp; &amp;nbsp;× ROLLBACK ENTITIES&lt;/span&gt;&lt;span style=&quot;text-wrap: nowrap;&quot;&gt;&lt;br&gt;&lt;/span&gt;&lt;/div&gt;&lt;div&gt;&lt;span style=&quot;text-wrap: nowrap;&quot;&gt;&amp;nbsp; &amp;nbsp;× User Hands-on V1&lt;/span&gt;&lt;span style=&quot;text-wrap: nowrap;&quot;&gt;&lt;br&gt;&lt;/span&gt;&lt;/div&gt;&lt;div&gt;&lt;span style=&quot;text-wrap: nowrap;&quot;&gt;&amp;nbsp; &amp;nbsp;× User Hands-on V2&lt;/span&gt;&lt;/div&gt;&lt;div&gt;&lt;span style=&quot;text-wrap: nowrap; background-color: initial;&quot;&gt;&amp;nbsp; &amp;nbsp;× User Hands-on V3&lt;/span&gt;&lt;/div&gt;&lt;div&gt;&lt;div&gt;&lt;b style=&quot;text-wrap: nowrap;&quot;&gt;Behavior Implementation....[Scheduled]&lt;/b&gt;&lt;span style=&quot;text-wrap: nowrap;&quot;&gt;&lt;br&gt;&lt;/span&gt;&lt;/div&gt;&lt;div&gt;&lt;span style=&quot;text-wrap: nowrap;&quot;&gt;&amp;nbsp; &amp;nbsp;× Basic of Interaction &amp;amp; Save Phase&amp;nbsp;&lt;/span&gt;&lt;/div&gt;&lt;/div&gt;&lt;div&gt;&lt;span style=&quot;text-wrap: nowrap;&quot;&gt;&amp;nbsp; &amp;nbsp;× Interaction Handler&amp;nbsp;&lt;/span&gt;&lt;span style=&quot;text-wrap: nowrap;&quot;&gt;&lt;br&gt;&lt;/span&gt;&lt;/div&gt;&lt;div&gt;&lt;span style=&quot;text-wrap: nowrap;&quot;&gt;&amp;nbsp; &amp;nbsp;× Save Handler&lt;/span&gt;&lt;span style=&quot;text-wrap: nowrap;&quot;&gt;&lt;br&gt;&lt;/span&gt;&lt;/div&gt;&lt;div&gt;&lt;span style=&quot;text-wrap: nowrap;&quot;&gt;&amp;nbsp; &amp;nbsp;× User Hands-on V1&lt;/span&gt;&lt;span style=&quot;text-wrap: nowrap;&quot;&gt;&lt;br&gt;&lt;/span&gt;&lt;/div&gt;&lt;div&gt;&lt;div&gt;&lt;div&gt;&lt;b style=&quot;text-wrap: nowrap;&quot;&gt;Business Service ................[Scheduled]&lt;/b&gt;&lt;span style=&quot;text-wrap: nowrap;&quot;&gt;&lt;br&gt;&lt;/span&gt;&lt;/div&gt;&lt;div&gt;&lt;span style=&quot;text-wrap: nowrap;&quot;&gt;&amp;nbsp; &amp;nbsp;× Projection Layer&amp;nbsp;&lt;/span&gt;&lt;/div&gt;&lt;/div&gt;&lt;/div&gt;&lt;div&gt;&lt;span style=&quot;text-wrap: nowrap;&quot;&gt;&amp;nbsp; &amp;nbsp;× Service Definition&lt;/span&gt;&lt;span style=&quot;text-wrap: nowrap;&quot;&gt;&lt;br&gt;&lt;/span&gt;&lt;/div&gt;&lt;div&gt;&lt;span style=&quot;text-wrap: nowrap;&quot;&gt;&amp;nbsp; &amp;nbsp;× Service Binding&lt;/span&gt;&lt;span style=&quot;text-wrap: nowrap;&quot;&gt;&lt;br&gt;&lt;/span&gt;&lt;/div&gt;&lt;div&gt;&lt;span style=&quot;text-wrap: nowrap;&quot;&gt;&amp;nbsp; &amp;nbsp;× Testing Services&lt;/span&gt;&lt;br&gt;&lt;/div&gt;&lt;div&gt;&lt;span style=&quot;text-wrap: nowrap;&quot;&gt;&amp;nbsp; &amp;nbsp;× User Hands-on V1&lt;/span&gt;&lt;span style=&quot;text-wrap: nowrap;&quot;&gt;&lt;br&gt;&lt;/span&gt;&lt;/div&gt;&lt;div&gt;&lt;b style=&quot;text-wrap: nowrap;&quot;&gt;Deployment to BTP..............[Scheduled]&lt;/b&gt;&lt;span style=&quot;text-wrap: nowrap;&quot;&gt;&lt;br&gt;&lt;/span&gt;&lt;/div&gt;&lt;div&gt;&lt;span style=&quot;text-wrap: nowrap;&quot;&gt;&amp;nbsp;&amp;nbsp;&lt;/span&gt;&lt;span style=&quot;text-wrap: nowrap; background-color: initial;&quot;&gt;&amp;nbsp;× Identity &amp;amp; Access Management&lt;/span&gt;&lt;span style=&quot;text-wrap: nowrap;&quot;&gt;&lt;br&gt;&lt;/span&gt;&lt;/div&gt;&lt;div&gt;&lt;span style=&quot;text-wrap: nowrap;&quot;&gt;&amp;nbsp; &amp;nbsp;× IAM APP &amp;amp; Business Catalog&lt;/span&gt;&lt;span style=&quot;text-wrap: nowrap;&quot;&gt;&lt;br&gt;&lt;/span&gt;&lt;/div&gt;&lt;div&gt;&lt;span style=&quot;text-wrap: nowrap;&quot;&gt;&amp;nbsp; &amp;nbsp;× IAM Business Role&lt;/span&gt;&lt;span style=&quot;text-wrap: nowrap;&quot;&gt;&lt;br&gt;&lt;/span&gt;&lt;/div&gt;&lt;div&gt;&lt;span style=&quot;text-wrap: nowrap;&quot;&gt;&amp;nbsp; &amp;nbsp;× Integration to FIORI Launchpad&lt;/span&gt;&lt;/div&gt;&lt;div&gt;&lt;span style=&quot;text-wrap: nowrap;&quot;&gt;&amp;nbsp; &amp;nbsp;× Consume Service&lt;/span&gt;&lt;span style=&quot;text-wrap: nowrap;&quot;&gt;&lt;br&gt;&lt;/span&gt;&lt;/div&gt;" style="text;html=1;align=left;verticalAlign=top;whiteSpace=wrap;rounded=0;fontSize=9;" parent="1" vertex="1">
          <mxGeometry x="115.97" y="430" width="170" height="820" as="geometry" />
        </mxCell>
        <mxCell id="C9ntUFuA4X-yzAEyJdpu-59" value="&lt;b&gt;BTP Cell&lt;/b&gt;&lt;br&gt;RAP Education Materials (Ongoing)" style="html=1;whiteSpace=wrap;" parent="1" vertex="1">
          <mxGeometry x="65" y="377.44" width="190" height="42.56" as="geometry" />
        </mxCell>
        <mxCell id="C9ntUFuA4X-yzAEyJdpu-42" value="&lt;b&gt;Self-prerequisite-study &lt;br&gt;for BTP&amp;nbsp;&lt;/b&gt;" style="html=1;whiteSpace=wrap;" parent="1" vertex="1">
          <mxGeometry x="312.75" y="377.44" width="170" height="42.56" as="geometry" />
        </mxCell>
        <mxCell id="N-IlC6iHk4Ezfcukmt0L-5" value="" style="endArrow=none;html=1;rounded=0;fontSize=16;strokeWidth=2;" edge="1" parent="1">
          <mxGeometry width="50" height="50" relative="1" as="geometry">
            <mxPoint x="400" y="2080" as="sourcePoint" />
            <mxPoint x="400" y="420" as="targetPoint" />
          </mxGeometry>
        </mxCell>
        <mxCell id="N-IlC6iHk4Ezfcukmt0L-7" value="" style="endArrow=none;html=1;rounded=0;fontSize=16;strokeWidth=2;" edge="1" parent="1">
          <mxGeometry width="50" height="50" relative="1" as="geometry">
            <mxPoint x="400" y="450" as="sourcePoint" />
            <mxPoint x="440" y="450" as="targetPoint" />
          </mxGeometry>
        </mxCell>
        <mxCell id="N-IlC6iHk4Ezfcukmt0L-10" value="&lt;b&gt;BTP Services&lt;/b&gt;" style="html=1;whiteSpace=wrap;" vertex="1" parent="1">
          <mxGeometry x="440" y="430" width="81" height="40" as="geometry" />
        </mxCell>
        <mxCell id="N-IlC6iHk4Ezfcukmt0L-13" value="" style="endArrow=none;dashed=1;html=1;strokeWidth=1;rounded=0;" edge="1" parent="1">
          <mxGeometry width="50" height="50" relative="1" as="geometry">
            <mxPoint x="463" y="980" as="sourcePoint" />
            <mxPoint x="463" y="470" as="targetPoint" />
          </mxGeometry>
        </mxCell>
        <mxCell id="N-IlC6iHk4Ezfcukmt0L-16" value="" style="endArrow=none;html=1;rounded=0;fontSize=16;strokeWidth=2;" edge="1" parent="1">
          <mxGeometry width="50" height="50" relative="1" as="geometry">
            <mxPoint x="400" y="1080" as="sourcePoint" />
            <mxPoint x="440" y="1080" as="targetPoint" />
          </mxGeometry>
        </mxCell>
        <mxCell id="N-IlC6iHk4Ezfcukmt0L-17" value="&lt;b&gt;CAP&lt;/b&gt;" style="html=1;whiteSpace=wrap;" vertex="1" parent="1">
          <mxGeometry x="440" y="1060" width="81" height="40" as="geometry" />
        </mxCell>
        <mxCell id="N-IlC6iHk4Ezfcukmt0L-18" value="&lt;span style=&quot;font-size: 10px; text-wrap: nowrap;&quot;&gt;&lt;b&gt;BTP Account&amp;nbsp;&lt;/b&gt;&lt;/span&gt;&lt;span style=&quot;text-wrap: nowrap; background-color: initial;&quot;&gt;&lt;b&gt;....................[Completed&lt;/b&gt;&lt;/span&gt;&lt;span style=&quot;text-wrap: nowrap; background-color: initial;&quot;&gt;&lt;b&gt;]&lt;/b&gt;&lt;/span&gt;&lt;span style=&quot;font-size: 9px; text-wrap: nowrap;&quot;&gt;&lt;b&gt;&amp;nbsp;&lt;/b&gt; &amp;nbsp;&lt;br&gt;&amp;nbsp; &amp;nbsp;× Global Account / Subaccount&lt;/span&gt;&lt;div&gt;&lt;span style=&quot;text-wrap: nowrap;&quot;&gt;&amp;nbsp; &amp;nbsp;× Resource Providers&lt;/span&gt;&lt;/div&gt;&lt;div&gt;&lt;span style=&quot;text-wrap: nowrap;&quot;&gt;&amp;nbsp; &amp;nbsp;× Entitlements&lt;/span&gt;&lt;span style=&quot;text-wrap: nowrap;&quot;&gt;&lt;br&gt;&lt;/span&gt;&lt;/div&gt;&lt;div&gt;&lt;span style=&quot;text-wrap: nowrap;&quot;&gt;&amp;nbsp; &amp;nbsp;× Security &amp;amp; Role&lt;/span&gt;&lt;span style=&quot;text-wrap: nowrap;&quot;&gt;&lt;br&gt;&lt;/span&gt;&lt;/div&gt;&lt;div&gt;&lt;span style=&quot;text-wrap: nowrap;&quot;&gt;&amp;nbsp; &amp;nbsp;× Cloud Foundry&amp;nbsp;&lt;/span&gt;&lt;span style=&quot;text-wrap: nowrap;&quot;&gt;&lt;br&gt;&lt;/span&gt;&lt;/div&gt;&lt;div&gt;&lt;span style=&quot;text-wrap: nowrap;&quot;&gt;&amp;nbsp; &amp;nbsp;× Connectivity (Destination)&lt;/span&gt;&lt;/div&gt;&lt;div&gt;&lt;span style=&quot;text-wrap: nowrap;&quot;&gt;&amp;nbsp; &amp;nbsp;× Pricing&amp;nbsp;&lt;/span&gt;&lt;span style=&quot;text-wrap: nowrap;&quot;&gt;&lt;br&gt;&lt;/span&gt;&lt;/div&gt;&lt;div&gt;&lt;span style=&quot;text-wrap: nowrap; font-size: 10px;&quot;&gt;&lt;b&gt;BAS&amp;nbsp;&lt;/b&gt;&lt;/span&gt;&lt;span style=&quot;text-wrap: nowrap; background-color: initial;&quot;&gt;&lt;b&gt;.....................................[Completed&lt;/b&gt;&lt;/span&gt;&lt;span style=&quot;text-wrap: nowrap; background-color: initial;&quot;&gt;&lt;b&gt;]&lt;/b&gt;&lt;/span&gt;&lt;span style=&quot;text-wrap: nowrap;&quot;&gt;&lt;b&gt;&amp;nbsp;&lt;/b&gt;&amp;nbsp;&amp;nbsp;&lt;br&gt;&amp;nbsp; &amp;nbsp;× Space Creation&amp;nbsp;&lt;/span&gt;&lt;/div&gt;&lt;span style=&quot;text-wrap: nowrap; font-size: 10px;&quot;&gt;&lt;b&gt;SAP HANA Cloud&amp;nbsp;&lt;/b&gt;&lt;/span&gt;&lt;span style=&quot;text-wrap: nowrap; background-color: initial;&quot;&gt;&lt;b&gt;.............[Completed&lt;/b&gt;&lt;/span&gt;&lt;span style=&quot;text-wrap: nowrap; background-color: initial;&quot;&gt;&lt;b&gt;]&lt;/b&gt;&lt;/span&gt;&lt;span style=&quot;text-wrap: nowrap;&quot;&gt;&lt;b&gt;&amp;nbsp;&lt;/b&gt;&amp;nbsp;&amp;nbsp;&lt;br&gt;&lt;/span&gt;&lt;div&gt;&lt;span style=&quot;text-wrap: nowrap; background-color: initial;&quot;&gt;&amp;nbsp; &amp;nbsp;× HANA DB Creation&lt;/span&gt;&lt;/div&gt;&lt;div&gt;&lt;span style=&quot;text-wrap: nowrap; background-color: initial;&quot;&gt;&amp;nbsp; &amp;nbsp;× HDI Containers to Cloud Foundry&lt;/span&gt;&lt;/div&gt;&lt;div&gt;&lt;span style=&quot;text-wrap: nowrap; background-color: initial;&quot;&gt;&amp;nbsp; &amp;nbsp;× Linking HANA DB to BAS Space&lt;/span&gt;&lt;br&gt;&lt;/div&gt;&lt;div&gt;&lt;span style=&quot;text-wrap: nowrap;&quot;&gt;&amp;nbsp; &amp;nbsp;× Data Explorer&lt;/span&gt;&lt;span style=&quot;text-wrap: nowrap; background-color: initial;&quot;&gt;&lt;br&gt;&lt;/span&gt;&lt;/div&gt;&lt;div&gt;&lt;span style=&quot;text-wrap: nowrap;&quot;&gt;&amp;nbsp; &amp;nbsp;× SQLScript : Basic Syntax&lt;/span&gt;&lt;span style=&quot;text-wrap: nowrap;&quot;&gt;&lt;br&gt;&lt;/span&gt;&lt;/div&gt;&lt;div&gt;&lt;span style=&quot;text-wrap: nowrap;&quot;&gt;&amp;nbsp; &amp;nbsp;× SQLScript : Procedure&lt;/span&gt;&lt;span style=&quot;text-wrap: nowrap;&quot;&gt;&lt;br&gt;&lt;/span&gt;&lt;/div&gt;&lt;div&gt;&lt;span style=&quot;text-wrap: nowrap;&quot;&gt;&amp;nbsp; &amp;nbsp;× SQLScript : Scala Functions&lt;/span&gt;&lt;span style=&quot;text-wrap: nowrap;&quot;&gt;&lt;br&gt;&lt;/span&gt;&lt;/div&gt;&lt;div&gt;&lt;span style=&quot;text-wrap: nowrap;&quot;&gt;&amp;nbsp; &amp;nbsp;× SQLScript : Library&lt;/span&gt;&lt;span style=&quot;text-wrap: nowrap;&quot;&gt;&lt;br&gt;&lt;/span&gt;&lt;/div&gt;&lt;div&gt;&lt;span style=&quot;text-wrap: nowrap;&quot;&gt;&amp;nbsp; &amp;nbsp;× SQLScript : Operators&lt;/span&gt;&lt;span style=&quot;text-wrap: nowrap;&quot;&gt;&lt;br&gt;&lt;/span&gt;&lt;/div&gt;&lt;div&gt;&lt;span style=&quot;text-wrap: nowrap; font-size: 10px;&quot;&gt;&lt;b&gt;CI/CD &lt;/b&gt;&lt;/span&gt;&lt;span style=&quot;text-wrap: nowrap; background-color: initial;&quot;&gt;&lt;b&gt;...................................[Completed&lt;/b&gt;&lt;/span&gt;&lt;span style=&quot;text-wrap: nowrap; background-color: initial;&quot;&gt;&lt;b&gt;]&lt;/b&gt;&lt;/span&gt;&lt;/div&gt;&lt;div&gt;&lt;span style=&quot;text-wrap: nowrap; background-color: initial;&quot;&gt;&amp;nbsp; &amp;nbsp;× Linking Github&lt;/span&gt;&lt;/div&gt;&lt;div&gt;&lt;span style=&quot;text-wrap: nowrap; background-color: initial;&quot;&gt;&amp;nbsp; &amp;nbsp;× Job Setup &amp;amp; Running Test&lt;/span&gt;&lt;/div&gt;&lt;div&gt;&lt;div&gt;&lt;span style=&quot;text-wrap: nowrap; font-size: 10px;&quot;&gt;&lt;b&gt;Cloud Transport Mngt.&amp;nbsp;&lt;/b&gt;&lt;/span&gt;&lt;span style=&quot;text-wrap: nowrap; background-color: initial;&quot;&gt;&lt;b&gt;...[Completed&lt;/b&gt;&lt;/span&gt;&lt;span style=&quot;text-wrap: nowrap; background-color: initial;&quot;&gt;&lt;b&gt;]&lt;/b&gt;&lt;/span&gt;&lt;/div&gt;&lt;/div&gt;&lt;div&gt;&lt;div&gt;&lt;span style=&quot;text-wrap: nowrap; background-color: initial;&quot;&gt;&amp;nbsp; &amp;nbsp;× Setup 3-Tier System ( DEV/QA/PRD )&lt;/span&gt;&lt;/div&gt;&lt;div&gt;&lt;span style=&quot;text-wrap: nowrap; background-color: initial;&quot;&gt;&amp;nbsp; &amp;nbsp;× Nodes &amp;amp; Routes&lt;/span&gt;&lt;/div&gt;&lt;/div&gt;&lt;div&gt;&lt;span style=&quot;text-wrap: nowrap;&quot;&gt;&amp;nbsp; &amp;nbsp;× Transport Requests and Exception Handling&lt;/span&gt;&lt;span style=&quot;text-wrap: nowrap; background-color: initial;&quot;&gt;&lt;br&gt;&lt;/span&gt;&lt;/div&gt;&lt;div&gt;&lt;div&gt;&lt;span style=&quot;text-wrap: nowrap; font-size: 10px;&quot;&gt;&lt;b&gt;Cloud Foundry Runtime&amp;nbsp;&lt;/b&gt;&lt;/span&gt;&lt;span style=&quot;text-wrap: nowrap; background-color: initial;&quot;&gt;&lt;b&gt;[Completed&lt;/b&gt;&lt;/span&gt;&lt;span style=&quot;text-wrap: nowrap; background-color: initial;&quot;&gt;&lt;b&gt;]&lt;/b&gt;&lt;/span&gt;&lt;/div&gt;&lt;div&gt;&lt;span style=&quot;text-wrap: nowrap;&quot;&gt;&amp;nbsp; &amp;nbsp;× API Runtime&lt;/span&gt;&lt;span style=&quot;text-wrap: nowrap; background-color: initial;&quot;&gt;&lt;b&gt;&lt;br&gt;&lt;/b&gt;&lt;/span&gt;&lt;/div&gt;&lt;div&gt;&lt;div&gt;&lt;span style=&quot;text-wrap: nowrap; font-size: 10px;&quot;&gt;&lt;b&gt;Integration Suite .............&lt;/b&gt;&lt;/span&gt;&lt;span style=&quot;text-wrap: nowrap; background-color: initial;&quot;&gt;&lt;b&gt;[Scheduled&lt;/b&gt;&lt;/span&gt;&lt;span style=&quot;text-wrap: nowrap; background-color: initial;&quot;&gt;&lt;b&gt;]&lt;/b&gt;&lt;/span&gt;&lt;/div&gt;&lt;/div&gt;&lt;div&gt;&lt;span style=&quot;text-wrap: nowrap;&quot;&gt;&amp;nbsp; &amp;nbsp;× API Management&lt;/span&gt;&lt;span style=&quot;text-wrap: nowrap; background-color: initial;&quot;&gt;&lt;b&gt;&lt;br&gt;&lt;/b&gt;&lt;/span&gt;&lt;/div&gt;&lt;div&gt;&lt;span style=&quot;text-wrap: nowrap;&quot;&gt;&amp;nbsp; &amp;nbsp;× Cloud Integrations&lt;/span&gt;&lt;span style=&quot;text-wrap: nowrap;&quot;&gt;&lt;br&gt;&lt;/span&gt;&lt;/div&gt;&lt;div&gt;&lt;div&gt;&lt;span style=&quot;text-wrap: nowrap; font-size: 10px;&quot;&gt;&lt;b&gt;Document Service ..........&lt;/b&gt;&lt;/span&gt;&lt;span style=&quot;text-wrap: nowrap; background-color: initial;&quot;&gt;&lt;b&gt;[Scheduled&lt;/b&gt;&lt;/span&gt;&lt;span style=&quot;text-wrap: nowrap; background-color: initial;&quot;&gt;&lt;b&gt;]&lt;/b&gt;&lt;/span&gt;&lt;/div&gt;&lt;div&gt;&lt;span style=&quot;text-wrap: nowrap;&quot;&gt;&amp;nbsp; &amp;nbsp;× DMS Service&lt;/span&gt;&lt;/div&gt;&lt;/div&gt;&lt;div&gt;&lt;span style=&quot;text-wrap: nowrap;&quot;&gt;&amp;nbsp; &amp;nbsp;× GOS Service&lt;/span&gt;&lt;span style=&quot;text-wrap: nowrap;&quot;&gt;&lt;br&gt;&lt;/span&gt;&lt;/div&gt;&lt;div&gt;&lt;div&gt;&lt;span style=&quot;text-wrap: nowrap; font-size: 10px;&quot;&gt;&lt;b&gt;SAP Build Apps ..............&lt;/b&gt;&lt;/span&gt;&lt;span style=&quot;text-wrap: nowrap; background-color: initial;&quot;&gt;&lt;b&gt;[Scheduled&lt;/b&gt;&lt;/span&gt;&lt;span style=&quot;text-wrap: nowrap; background-color: initial;&quot;&gt;&lt;b&gt;]&lt;/b&gt;&lt;/span&gt;&lt;/div&gt;&lt;div&gt;&lt;div&gt;&lt;span style=&quot;text-wrap: nowrap; font-size: 10px;&quot;&gt;&lt;b&gt;Build Process Auto. .......&lt;/b&gt;&lt;/span&gt;&lt;span style=&quot;text-wrap: nowrap; background-color: initial;&quot;&gt;&lt;b&gt;[Scheduled&lt;/b&gt;&lt;/span&gt;&lt;span style=&quot;text-wrap: nowrap; background-color: initial;&quot;&gt;&lt;b&gt;]&lt;/b&gt;&lt;/span&gt;&lt;/div&gt;&lt;div&gt;&lt;div&gt;&lt;span style=&quot;text-wrap: nowrap; font-size: 10px;&quot;&gt;&lt;b&gt;Build Work Zone .............&lt;/b&gt;&lt;/span&gt;&lt;span style=&quot;text-wrap: nowrap; background-color: initial;&quot;&gt;&lt;b&gt;[Scheduled&lt;/b&gt;&lt;/span&gt;&lt;span style=&quot;text-wrap: nowrap; background-color: initial;&quot;&gt;&lt;b&gt;]&lt;/b&gt;&lt;/span&gt;&lt;/div&gt;&lt;div&gt;&lt;div&gt;&lt;span style=&quot;text-wrap: nowrap; font-size: 10px;&quot;&gt;&lt;b&gt;HTML5 Repo. Service......&lt;/b&gt;&lt;/span&gt;&lt;span style=&quot;text-wrap: nowrap; background-color: initial;&quot;&gt;&lt;b&gt;[Scheduled&lt;/b&gt;&lt;/span&gt;&lt;span style=&quot;text-wrap: nowrap; background-color: initial;&quot;&gt;&lt;b&gt;]&lt;/b&gt;&lt;/span&gt;&lt;/div&gt;&lt;/div&gt;&lt;/div&gt;&lt;/div&gt;&lt;/div&gt;&lt;div&gt;&lt;div&gt;&lt;span style=&quot;text-wrap: nowrap; font-size: 10px;&quot;&gt;&lt;b&gt;AI ......................................&lt;/b&gt;&lt;/span&gt;&lt;span style=&quot;text-wrap: nowrap; background-color: initial;&quot;&gt;&lt;b&gt;[Scheduled&lt;/b&gt;&lt;/span&gt;&lt;span style=&quot;text-wrap: nowrap; background-color: initial;&quot;&gt;&lt;b&gt;]&lt;/b&gt;&lt;/span&gt;&lt;/div&gt;&lt;div&gt;&lt;span style=&quot;text-wrap: nowrap;&quot;&gt;&amp;nbsp; &amp;nbsp;× AI Launchpad&lt;/span&gt;&lt;span style=&quot;text-wrap: nowrap; background-color: initial;&quot;&gt;&lt;b&gt;&lt;br&gt;&lt;/b&gt;&lt;/span&gt;&lt;/div&gt;&lt;div&gt;&lt;span style=&quot;text-wrap: nowrap;&quot;&gt;&amp;nbsp; &amp;nbsp;× AI Core&lt;/span&gt;&lt;/div&gt;&lt;/div&gt;&lt;div&gt;&lt;span style=&quot;text-wrap: nowrap;&quot;&gt;&amp;nbsp; &amp;nbsp;× Joule&lt;/span&gt;&lt;span style=&quot;text-wrap: nowrap;&quot;&gt;&lt;br&gt;&lt;/span&gt;&lt;/div&gt;&lt;div&gt;&lt;span style=&quot;text-wrap: nowrap;&quot;&gt;&amp;nbsp; &amp;nbsp;× SAP Build Code&lt;/span&gt;&lt;span style=&quot;text-wrap: nowrap;&quot;&gt;&lt;br&gt;&lt;/span&gt;&lt;/div&gt;&lt;div&gt;&lt;/div&gt;&lt;/div&gt;" style="text;html=1;align=left;verticalAlign=top;whiteSpace=wrap;rounded=0;fontSize=9;" vertex="1" parent="1">
          <mxGeometry x="470" y="480" width="180" height="500" as="geometry" />
        </mxCell>
        <mxCell id="N-IlC6iHk4Ezfcukmt0L-21" value="" style="endArrow=none;dashed=1;html=1;strokeWidth=1;rounded=0;" edge="1" parent="1">
          <mxGeometry width="50" height="50" relative="1" as="geometry">
            <mxPoint x="464" y="1750" as="sourcePoint" />
            <mxPoint x="464" y="1099" as="targetPoint" />
          </mxGeometry>
        </mxCell>
        <mxCell id="N-IlC6iHk4Ezfcukmt0L-22" value="&lt;span style=&quot;font-size: 10px; text-wrap: nowrap;&quot;&gt;&lt;b&gt;Node.JS&amp;nbsp;&lt;/b&gt;&lt;/span&gt;&lt;span style=&quot;text-wrap: nowrap; background-color: initial;&quot;&gt;&lt;b&gt;.................................[Ongoing&lt;/b&gt;&lt;/span&gt;&lt;span style=&quot;text-wrap: nowrap; background-color: initial;&quot;&gt;&lt;b&gt;]&lt;/b&gt;&lt;/span&gt;&lt;span style=&quot;font-size: 9px; text-wrap: nowrap;&quot;&gt;&lt;b&gt;&amp;nbsp;&lt;/b&gt; &amp;nbsp;&lt;br&gt;&amp;nbsp; &amp;nbsp;× Basics&lt;/span&gt;&lt;div&gt;&lt;span style=&quot;text-wrap: nowrap;&quot;&gt;&amp;nbsp; &amp;nbsp;× REPL Commands&lt;/span&gt;&lt;br&gt;&lt;/div&gt;&lt;div&gt;&lt;span style=&quot;text-wrap: nowrap;&quot;&gt;&amp;nbsp; &amp;nbsp;× HTML Response&lt;/span&gt;&lt;span style=&quot;text-wrap: nowrap;&quot;&gt;&lt;br&gt;&lt;/span&gt;&lt;/div&gt;&lt;div&gt;&lt;span style=&quot;text-wrap: nowrap;&quot;&gt;&amp;nbsp; &amp;nbsp;× Debugging&lt;/span&gt;&lt;span style=&quot;text-wrap: nowrap;&quot;&gt;&lt;br&gt;&lt;/span&gt;&lt;/div&gt;&lt;div&gt;&lt;span style=&quot;text-wrap: nowrap;&quot;&gt;&amp;nbsp; &amp;nbsp;× Module ( Core, ECMAScript )&lt;/span&gt;&lt;/div&gt;&lt;div&gt;&lt;span style=&quot;text-wrap: nowrap;&quot;&gt;&amp;nbsp; &amp;nbsp;× Web Server HTTP&lt;/span&gt;&lt;/div&gt;&lt;div&gt;&lt;span style=&quot;text-wrap: nowrap;&quot;&gt;&amp;nbsp; &amp;nbsp;× HTTP/2&lt;/span&gt;&lt;span style=&quot;text-wrap: nowrap;&quot;&gt;&lt;br&gt;&lt;/span&gt;&lt;/div&gt;&lt;div&gt;&lt;span style=&quot;text-wrap: nowrap;&quot;&gt;&amp;nbsp; &amp;nbsp;× Request / Response&lt;/span&gt;&lt;span style=&quot;text-wrap: nowrap;&quot;&gt;&lt;br&gt;&lt;/span&gt;&lt;/div&gt;&lt;div&gt;&lt;span style=&quot;text-wrap: nowrap;&quot;&gt;&amp;nbsp; &amp;nbsp;× Movie Database&lt;/span&gt;&lt;span style=&quot;text-wrap: nowrap;&quot;&gt;&lt;br&gt;&lt;/span&gt;&lt;/div&gt;&lt;div&gt;&lt;span style=&quot;text-wrap: nowrap;&quot;&gt;&amp;nbsp; &amp;nbsp;× Middleware&lt;/span&gt;&lt;span style=&quot;text-wrap: nowrap;&quot;&gt;&lt;br&gt;&lt;/span&gt;&lt;/div&gt;&lt;div&gt;&lt;span style=&quot;text-wrap: nowrap;&quot;&gt;&amp;nbsp; &amp;nbsp;× Routing&lt;/span&gt;&lt;span style=&quot;text-wrap: nowrap;&quot;&gt;&lt;br&gt;&lt;/span&gt;&lt;/div&gt;&lt;div&gt;&lt;span style=&quot;text-wrap: nowrap;&quot;&gt;&amp;nbsp; &amp;nbsp;× Pug&lt;/span&gt;&lt;span style=&quot;text-wrap: nowrap;&quot;&gt;&lt;br&gt;&lt;/span&gt;&lt;/div&gt;&lt;div&gt;&lt;span style=&quot;text-wrap: nowrap;&quot;&gt;&amp;nbsp; &amp;nbsp;× Handlebars&lt;/span&gt;&lt;span style=&quot;text-wrap: nowrap;&quot;&gt;&lt;br&gt;&lt;/span&gt;&lt;/div&gt;&lt;div&gt;&lt;span style=&quot;text-wrap: nowrap;&quot;&gt;&amp;nbsp; &amp;nbsp;× Authentication &amp;amp; Session Handling&lt;/span&gt;&lt;span style=&quot;text-wrap: nowrap;&quot;&gt;&lt;br&gt;&lt;/span&gt;&lt;/div&gt;&lt;div&gt;&lt;span style=&quot;text-wrap: nowrap;&quot;&gt;&amp;nbsp; &amp;nbsp;× REST Server ( Read, Write, JWTs,.. )&amp;nbsp;&lt;/span&gt;&lt;span style=&quot;text-wrap: nowrap;&quot;&gt;&lt;br&gt;&lt;/span&gt;&lt;/div&gt;&lt;div&gt;&lt;span style=&quot;text-wrap: nowrap;&quot;&gt;&amp;nbsp; &amp;nbsp;× GraphQL&amp;nbsp;&lt;/span&gt;&lt;span style=&quot;text-wrap: nowrap;&quot;&gt;&lt;br&gt;&lt;/span&gt;&lt;/div&gt;&lt;div&gt;&lt;span style=&quot;text-wrap: nowrap;&quot;&gt;&amp;nbsp; &amp;nbsp;× Websocket / Socket.IO&lt;/span&gt;&lt;span style=&quot;text-wrap: nowrap;&quot;&gt;&lt;br&gt;&lt;/span&gt;&lt;/div&gt;&lt;div&gt;&lt;span style=&quot;text-wrap: nowrap;&quot;&gt;&amp;nbsp; &amp;nbsp;× Typescript&lt;/span&gt;&lt;span style=&quot;text-wrap: nowrap;&quot;&gt;&lt;br&gt;&lt;/span&gt;&lt;/div&gt;&lt;div&gt;&lt;span style=&quot;text-wrap: nowrap;&quot;&gt;&amp;nbsp; &amp;nbsp;× Nest Command&lt;/span&gt;&lt;span style=&quot;text-wrap: nowrap;&quot;&gt;&lt;br&gt;&lt;/span&gt;&lt;/div&gt;&lt;div&gt;&lt;span style=&quot;text-wrap: nowrap;&quot;&gt;&amp;nbsp; &amp;nbsp;× Node Command&lt;/span&gt;&lt;span style=&quot;text-wrap: nowrap;&quot;&gt;&lt;br&gt;&lt;/span&gt;&lt;/div&gt;&lt;div&gt;&lt;span style=&quot;text-wrap: nowrap;&quot;&gt;&amp;nbsp; &amp;nbsp;× Asynchronous Programming&lt;/span&gt;&lt;span style=&quot;text-wrap: nowrap;&quot;&gt;&lt;br&gt;&lt;/span&gt;&lt;/div&gt;&lt;div&gt;&lt;span style=&quot;text-wrap: nowrap;&quot;&gt;&amp;nbsp; &amp;nbsp;× RxJS&lt;/span&gt;&lt;span style=&quot;text-wrap: nowrap;&quot;&gt;&lt;br&gt;&lt;/span&gt;&lt;/div&gt;&lt;div&gt;&lt;span style=&quot;text-wrap: nowrap;&quot;&gt;&amp;nbsp; &amp;nbsp;× Streams&lt;/span&gt;&lt;span style=&quot;text-wrap: nowrap;&quot;&gt;&lt;br&gt;&lt;/span&gt;&lt;/div&gt;&lt;div&gt;&lt;span style=&quot;text-wrap: nowrap;&quot;&gt;&amp;nbsp; &amp;nbsp;× Socket Server&lt;/span&gt;&lt;span style=&quot;text-wrap: nowrap;&quot;&gt;&lt;br&gt;&lt;/span&gt;&lt;/div&gt;&lt;div&gt;&lt;span style=&quot;text-wrap: nowrap;&quot;&gt;&amp;nbsp; &amp;nbsp;× Package Manager&lt;/span&gt;&lt;span style=&quot;text-wrap: nowrap;&quot;&gt;&lt;br&gt;&lt;/span&gt;&lt;/div&gt;&lt;div&gt;&lt;span style=&quot;text-wrap: nowrap;&quot;&gt;&amp;nbsp; &amp;nbsp;× Security&lt;/span&gt;&lt;span style=&quot;text-wrap: nowrap;&quot;&gt;&lt;br&gt;&lt;/span&gt;&lt;/div&gt;&lt;div&gt;&lt;span style=&quot;text-wrap: nowrap; font-size: 10px;&quot;&gt;&lt;b&gt;Git&amp;nbsp;&lt;/b&gt;&lt;/span&gt;&lt;span style=&quot;text-wrap: nowrap; background-color: initial;&quot;&gt;&lt;b&gt;.........................................[Scheduled&lt;/b&gt;&lt;/span&gt;&lt;span style=&quot;text-wrap: nowrap; background-color: initial;&quot;&gt;&lt;b&gt;]&lt;/b&gt;&lt;/span&gt;&lt;span style=&quot;text-wrap: nowrap;&quot;&gt;&lt;b&gt;&amp;nbsp;&lt;/b&gt;&amp;nbsp;&amp;nbsp;&lt;br&gt;&lt;/span&gt;&lt;/div&gt;&lt;div&gt;&lt;span style=&quot;text-wrap: nowrap;&quot;&gt;&amp;nbsp; &amp;nbsp;× Setup Repository&lt;/span&gt;&lt;/div&gt;&lt;div&gt;&lt;span style=&quot;text-wrap: nowrap;&quot;&gt;&amp;nbsp; &amp;nbsp;× Bash&lt;/span&gt;&lt;span style=&quot;text-wrap: nowrap;&quot;&gt;&lt;br&gt;&lt;/span&gt;&lt;div&gt;&lt;span style=&quot;text-wrap: nowrap;&quot;&gt;&amp;nbsp; &amp;nbsp;× Git Commands&lt;/span&gt;&lt;br&gt;&lt;/div&gt;&lt;div&gt;&lt;span style=&quot;text-wrap: nowrap;&quot;&gt;&amp;nbsp; &amp;nbsp;× HTML Response&lt;/span&gt;&lt;/div&gt;&lt;/div&gt;&lt;div&gt;&lt;div&gt;&lt;span style=&quot;text-wrap: nowrap;&quot;&gt;&amp;nbsp; &amp;nbsp;× Authentication&lt;/span&gt;&lt;/div&gt;&lt;/div&gt;&lt;div&gt;&lt;div&gt;&lt;span style=&quot;text-wrap: nowrap;&quot;&gt;&amp;nbsp; &amp;nbsp;× IDEs&lt;/span&gt;&lt;/div&gt;&lt;/div&gt;&lt;div&gt;&lt;div&gt;&lt;span style=&quot;text-wrap: nowrap;&quot;&gt;&amp;nbsp; &amp;nbsp;× Synchronization &amp;amp; Backups&lt;/span&gt;&lt;/div&gt;&lt;/div&gt;&lt;div&gt;&lt;div&gt;&lt;span style=&quot;text-wrap: nowrap;&quot;&gt;&amp;nbsp; &amp;nbsp;× Git Database : Commit&lt;/span&gt;&lt;/div&gt;&lt;div&gt;&lt;span style=&quot;text-wrap: nowrap;&quot;&gt;&amp;nbsp; &amp;nbsp;× Git Database : Commit-undo&lt;/span&gt;&lt;span style=&quot;text-wrap: nowrap;&quot;&gt;&lt;br&gt;&lt;/span&gt;&lt;/div&gt;&lt;div&gt;&lt;span style=&quot;text-wrap: nowrap;&quot;&gt;&amp;nbsp; &amp;nbsp;× Git Database : Branches&lt;/span&gt;&lt;span style=&quot;text-wrap: nowrap;&quot;&gt;&lt;br&gt;&lt;/span&gt;&lt;/div&gt;&lt;div&gt;&lt;span style=&quot;text-wrap: nowrap;&quot;&gt;&amp;nbsp; &amp;nbsp;× Git Database : Merging&lt;/span&gt;&lt;span style=&quot;text-wrap: nowrap;&quot;&gt;&lt;br&gt;&lt;/span&gt;&lt;/div&gt;&lt;div&gt;&lt;div&gt;&lt;span style=&quot;text-wrap: nowrap;&quot;&gt;&amp;nbsp; &amp;nbsp;× Git Database : Statshing&lt;/span&gt;&lt;span style=&quot;text-wrap: nowrap;&quot;&gt;&lt;br&gt;&lt;/span&gt;&lt;/div&gt;&lt;div&gt;&lt;div&gt;&lt;span style=&quot;text-wrap: nowrap;&quot;&gt;&amp;nbsp; &amp;nbsp;× Git Database : Remote Repositories&lt;/span&gt;&lt;/div&gt;&lt;/div&gt;&lt;div&gt;&lt;div&gt;&lt;span style=&quot;text-wrap: nowrap;&quot;&gt;&amp;nbsp; &amp;nbsp;× Git Database : Rebasing&lt;/span&gt;&lt;/div&gt;&lt;/div&gt;&lt;div&gt;&lt;div&gt;&lt;span style=&quot;text-wrap: nowrap;&quot;&gt;&amp;nbsp; &amp;nbsp;× Git Database : Tags&lt;/span&gt;&lt;/div&gt;&lt;/div&gt;&lt;div&gt;&lt;div&gt;&lt;span style=&quot;text-wrap: nowrap;&quot;&gt;&amp;nbsp; &amp;nbsp;× GitLab&lt;/span&gt;&lt;/div&gt;&lt;div&gt;&lt;div&gt;&lt;span style=&quot;text-wrap: nowrap;&quot;&gt;&amp;nbsp; &amp;nbsp;× Bitbucket&lt;/span&gt;&lt;/div&gt;&lt;div&gt;&lt;div&gt;&lt;span style=&quot;text-wrap: nowrap;&quot;&gt;&amp;nbsp; &amp;nbsp;× Azure Repository&lt;/span&gt;&lt;/div&gt;&lt;div&gt;&lt;/div&gt;&lt;/div&gt;&lt;div&gt;&lt;/div&gt;&lt;/div&gt;&lt;div&gt;&lt;/div&gt;&lt;/div&gt;&lt;div&gt;&lt;div&gt;&lt;span style=&quot;text-wrap: nowrap;&quot;&gt;&amp;nbsp; &amp;nbsp;× Command Reference Summarization&lt;/span&gt;&lt;/div&gt;&lt;/div&gt;&lt;div&gt;&lt;div&gt;&lt;span style=&quot;text-wrap: nowrap; font-size: 10px;&quot;&gt;&lt;b&gt;CAPM&lt;/b&gt;&lt;/span&gt;&lt;span style=&quot;text-wrap: nowrap; background-color: initial;&quot;&gt;&lt;b&gt;......................................[Ongoing&lt;/b&gt;&lt;/span&gt;&lt;span style=&quot;text-wrap: nowrap; background-color: initial;&quot;&gt;&lt;b&gt;]&lt;/b&gt;&lt;/span&gt;&lt;span style=&quot;text-wrap: nowrap;&quot;&gt;&lt;b&gt;&amp;nbsp;&lt;/b&gt;&amp;nbsp;&amp;nbsp;&lt;br&gt;&lt;/span&gt;&lt;/div&gt;&lt;/div&gt;&lt;div&gt;&lt;div&gt;&lt;span style=&quot;text-wrap: nowrap;&quot;&gt;&amp;nbsp; &amp;nbsp;× Domain Modelling&lt;/span&gt;&lt;/div&gt;&lt;div&gt;&lt;span style=&quot;text-wrap: nowrap;&quot;&gt;&amp;nbsp; &amp;nbsp;× Service Definition&lt;/span&gt;&lt;/div&gt;&lt;div&gt;&lt;span style=&quot;text-wrap: nowrap;&quot;&gt;&amp;nbsp; &amp;nbsp;× Events &amp;amp; Messages&lt;/span&gt;&lt;/div&gt;&lt;div&gt;&lt;span style=&quot;text-wrap: nowrap;&quot;&gt;&amp;nbsp; &amp;nbsp;× Protocols/APIs&lt;/span&gt;&lt;/div&gt;&lt;div&gt;&lt;span style=&quot;text-wrap: nowrap;&quot;&gt;&amp;nbsp; &amp;nbsp;× Database&lt;/span&gt;&lt;/div&gt;&lt;div&gt;&lt;span style=&quot;text-wrap: nowrap;&quot;&gt;&amp;nbsp; &amp;nbsp;× Localization ( i18n )&lt;/span&gt;&lt;/div&gt;&lt;div&gt;&lt;span style=&quot;text-wrap: nowrap;&quot;&gt;&amp;nbsp; &amp;nbsp;× Security ( XSUAA )&lt;/span&gt;&lt;/div&gt;&lt;div&gt;&lt;span style=&quot;text-wrap: nowrap;&quot;&gt;&amp;nbsp; &amp;nbsp;× Deployment&lt;/span&gt;&lt;/div&gt;&lt;div&gt;&lt;span style=&quot;text-wrap: nowrap;&quot;&gt;&amp;nbsp; &amp;nbsp;× Multitenency&lt;/span&gt;&lt;/div&gt;&lt;div&gt;&lt;span style=&quot;text-wrap: nowrap;&quot;&gt;&amp;nbsp; &amp;nbsp;× Extensibility&lt;/span&gt;&lt;span style=&quot;text-wrap: nowrap;&quot;&gt;&lt;br&gt;&lt;/span&gt;&lt;div&gt;&lt;span style=&quot;text-wrap: nowrap;&quot;&gt;&amp;nbsp; &amp;nbsp;× CDS&lt;/span&gt;&lt;br&gt;&lt;/div&gt;&lt;/div&gt;&lt;/div&gt;&lt;div&gt;&lt;br&gt;&lt;/div&gt;&lt;/div&gt;&lt;/div&gt;&lt;div&gt;&lt;br&gt;&lt;/div&gt;&lt;div&gt;&lt;div&gt;&lt;/div&gt;&lt;/div&gt;" style="text;html=1;align=left;verticalAlign=top;whiteSpace=wrap;rounded=0;fontSize=9;" vertex="1" parent="1">
          <mxGeometry x="470" y="1100" width="180" height="660" as="geometry" />
        </mxCell>
        <mxCell id="N-IlC6iHk4Ezfcukmt0L-23" value="" style="image;sketch=0;aspect=fixed;html=1;points=[];align=center;fontSize=12;image=img/lib/mscae/SAP_HANA_on_Azure.svg;" vertex="1" parent="1">
          <mxGeometry x="374.5" y="60" width="50" height="25" as="geometry" />
        </mxCell>
        <mxCell id="N-IlC6iHk4Ezfcukmt0L-24" value="" style="endArrow=none;html=1;rounded=0;fontSize=16;strokeWidth=2;" edge="1" parent="1">
          <mxGeometry width="50" height="50" relative="1" as="geometry">
            <mxPoint x="400" y="1860" as="sourcePoint" />
            <mxPoint x="440" y="1860" as="targetPoint" />
          </mxGeometry>
        </mxCell>
        <mxCell id="N-IlC6iHk4Ezfcukmt0L-25" value="&lt;b&gt;RAP&lt;/b&gt;" style="html=1;whiteSpace=wrap;" vertex="1" parent="1">
          <mxGeometry x="440" y="1840" width="81" height="40" as="geometry" />
        </mxCell>
        <mxCell id="N-IlC6iHk4Ezfcukmt0L-27" value="" style="endArrow=none;html=1;rounded=0;fontSize=16;strokeWidth=2;" edge="1" parent="1">
          <mxGeometry width="50" height="50" relative="1" as="geometry">
            <mxPoint x="400" y="1940" as="sourcePoint" />
            <mxPoint x="440" y="1940" as="targetPoint" />
          </mxGeometry>
        </mxCell>
        <mxCell id="N-IlC6iHk4Ezfcukmt0L-28" value="&lt;b&gt;Kyma&lt;/b&gt;" style="html=1;whiteSpace=wrap;" vertex="1" parent="1">
          <mxGeometry x="440" y="1920" width="81" height="40" as="geometry" />
        </mxCell>
        <mxCell id="N-IlC6iHk4Ezfcukmt0L-29" value="" style="endArrow=none;dashed=1;html=1;strokeWidth=1;rounded=0;exitX=-0.006;exitY=0.547;exitDx=0;exitDy=0;exitPerimeter=0;" edge="1" parent="1" source="N-IlC6iHk4Ezfcukmt0L-31">
          <mxGeometry width="50" height="50" relative="1" as="geometry">
            <mxPoint x="464" y="2020" as="sourcePoint" />
            <mxPoint x="464" y="1960" as="targetPoint" />
          </mxGeometry>
        </mxCell>
        <mxCell id="N-IlC6iHk4Ezfcukmt0L-31" value="&lt;span style=&quot;text-wrap: nowrap; background-color: initial;&quot;&gt;&lt;b&gt;&lt;span style=&quot;font-size: 10px;&quot;&gt;Kubernetes&amp;nbsp;&lt;/span&gt;............................[Scheduled&lt;/b&gt;&lt;/span&gt;&lt;span style=&quot;text-wrap: nowrap; background-color: initial;&quot;&gt;&lt;b&gt;]&lt;/b&gt;&lt;/span&gt;&lt;span style=&quot;font-size: 9px; text-wrap: nowrap;&quot;&gt;&lt;b&gt;&amp;nbsp;&lt;/b&gt; &amp;nbsp;&lt;br&gt;&amp;nbsp; &amp;nbsp;× Linux Commands&lt;/span&gt;&lt;div&gt;&lt;span style=&quot;text-wrap: nowrap;&quot;&gt;&amp;nbsp; &amp;nbsp;× Container Deployment&lt;/span&gt;&lt;span style=&quot;text-wrap: nowrap;&quot;&gt;&lt;br&gt;&lt;/span&gt;&lt;div&gt;&lt;br&gt;&lt;/div&gt;&lt;div&gt;&lt;div&gt;&lt;div&gt;&lt;br&gt;&lt;/div&gt;&lt;/div&gt;&lt;/div&gt;&lt;div&gt;&lt;br&gt;&lt;/div&gt;&lt;div&gt;&lt;div&gt;&lt;/div&gt;&lt;/div&gt;&lt;/div&gt;" style="text;html=1;align=left;verticalAlign=top;whiteSpace=wrap;rounded=0;fontSize=9;" vertex="1" parent="1">
          <mxGeometry x="465" y="1960" width="180" height="80" as="geometry" />
        </mxCell>
        <mxCell id="N-IlC6iHk4Ezfcukmt0L-32" value="&lt;div&gt;&lt;span style=&quot;text-wrap: nowrap;&quot;&gt;&lt;span style=&quot;font-size: 10px;&quot;&gt;&lt;b&gt;Scheduled&amp;nbsp;&lt;/b&gt;&lt;/span&gt;&lt;/span&gt;&lt;b style=&quot;background-color: initial; text-wrap: nowrap; font-size: 10px;&quot;&gt;&amp;amp; Ongoing&lt;/b&gt;&lt;b style=&quot;font-size: 10px; text-wrap: nowrap; background-color: initial;&quot;&gt;&amp;nbsp;&amp;nbsp;:&amp;nbsp; 6&lt;/b&gt;&lt;/div&gt;&lt;div&gt;&lt;span style=&quot;text-wrap: nowrap;&quot;&gt;&lt;span style=&quot;font-size: 10px;&quot;&gt;&lt;b&gt;Completed&amp;nbsp; &amp;nbsp; &amp;nbsp; &amp;nbsp; &amp;nbsp; &amp;nbsp; &amp;nbsp; &amp;nbsp; &amp;nbsp; &amp;nbsp; &amp;nbsp;:&amp;nbsp; 3&lt;/b&gt;&lt;/span&gt;&lt;/span&gt;&lt;/div&gt;&lt;div&gt;&lt;span style=&quot;text-wrap: nowrap;&quot;&gt;&lt;span style=&quot;font-size: 10px; background-color: rgb(255, 255, 0);&quot;&gt;&lt;b&gt;Total Progress : 33 %&lt;/b&gt;&lt;/span&gt;&lt;/span&gt;&lt;/div&gt;&lt;div&gt;&lt;span style=&quot;text-wrap: nowrap;&quot;&gt;&lt;span style=&quot;font-size: 10px;&quot;&gt;&lt;b&gt;Estimated Schedule : 10/25/24&lt;br&gt;&lt;/b&gt;&lt;/span&gt;&lt;/span&gt;&lt;div&gt;&lt;br&gt;&lt;/div&gt;&lt;div&gt;&lt;div&gt;&lt;div&gt;&lt;br&gt;&lt;/div&gt;&lt;/div&gt;&lt;/div&gt;&lt;div&gt;&lt;br&gt;&lt;/div&gt;&lt;div&gt;&lt;div&gt;&lt;/div&gt;&lt;/div&gt;&lt;/div&gt;" style="text;html=1;align=left;verticalAlign=top;whiteSpace=wrap;rounded=0;fontSize=9;strokeColor=default;dashed=1;" vertex="1" parent="1">
          <mxGeometry x="107" y="1253" width="147" height="67" as="geometry" />
        </mxCell>
        <mxCell id="N-IlC6iHk4Ezfcukmt0L-34" value="&lt;div&gt;&lt;span style=&quot;text-wrap: nowrap;&quot;&gt;&lt;span style=&quot;font-size: 10px;&quot;&gt;&lt;b&gt;Scheduled&amp;nbsp;&lt;/b&gt;&lt;/span&gt;&lt;/span&gt;&lt;b style=&quot;background-color: initial; text-wrap: nowrap; font-size: 10px;&quot;&gt;&amp;amp; Ongoing&lt;/b&gt;&lt;b style=&quot;font-size: 10px; text-wrap: nowrap; background-color: initial;&quot;&gt;&amp;nbsp;:&amp;nbsp; 8&amp;nbsp;&lt;/b&gt;&lt;/div&gt;&lt;div&gt;&lt;span style=&quot;text-wrap: nowrap;&quot;&gt;&lt;span style=&quot;font-size: 10px;&quot;&gt;&lt;b&gt;Completed&amp;nbsp;&lt;span style=&quot;white-space: pre;&quot;&gt;&#x9;&lt;/span&gt;&lt;span style=&quot;white-space: pre;&quot;&gt;&#x9;&lt;/span&gt;&amp;nbsp; &amp;nbsp; &amp;nbsp;&amp;nbsp;&amp;nbsp;:&amp;nbsp; 5&lt;/b&gt;&lt;/span&gt;&lt;/span&gt;&lt;/div&gt;&lt;div&gt;&lt;span style=&quot;text-wrap: nowrap;&quot;&gt;&lt;span style=&quot;font-size: 10px; background-color: rgb(255, 255, 0);&quot;&gt;&lt;b&gt;Total Progress : 38 %&lt;/b&gt;&lt;/span&gt;&lt;/span&gt;&lt;/div&gt;&lt;div&gt;&lt;span style=&quot;text-wrap: nowrap;&quot;&gt;&lt;span style=&quot;font-size: 10px;&quot;&gt;&lt;b&gt;Estimated Schedule : N/A&lt;/b&gt;&lt;/span&gt;&lt;/span&gt;&lt;/div&gt;&lt;blockquote style=&quot;margin: 0 0 0 40px; border: none; padding: 0px;&quot;&gt;&lt;blockquote style=&quot;margin: 0 0 0 40px; border: none; padding: 0px;&quot;&gt;&lt;div&gt;&lt;div&gt;( No License )&lt;/div&gt;&lt;/div&gt;&lt;/blockquote&gt;&lt;/blockquote&gt;&lt;div&gt;&lt;div&gt;&lt;div&gt;&lt;div&gt;&lt;br&gt;&lt;/div&gt;&lt;/div&gt;&lt;/div&gt;&lt;div&gt;&lt;br&gt;&lt;/div&gt;&lt;div&gt;&lt;div&gt;&lt;/div&gt;&lt;/div&gt;&lt;/div&gt;" style="text;html=1;align=left;verticalAlign=top;whiteSpace=wrap;rounded=0;fontSize=9;strokeColor=default;dashed=1;" vertex="1" parent="1">
          <mxGeometry x="463" y="983" width="140" height="67" as="geometry" />
        </mxCell>
        <mxCell id="N-IlC6iHk4Ezfcukmt0L-35" value="&lt;div&gt;&lt;span style=&quot;text-wrap: nowrap;&quot;&gt;&lt;span style=&quot;font-size: 10px;&quot;&gt;&lt;b&gt;Scheduled&amp;nbsp;&lt;/b&gt;&lt;/span&gt;&lt;/span&gt;&lt;b style=&quot;background-color: initial; text-wrap: nowrap; font-size: 10px;&quot;&gt;&amp;amp; Ongoing&lt;/b&gt;&lt;b style=&quot;font-size: 10px; text-wrap: nowrap; background-color: initial;&quot;&gt;&amp;nbsp;:&amp;nbsp; 8&amp;nbsp;&lt;/b&gt;&lt;/div&gt;&lt;div&gt;&lt;span style=&quot;text-wrap: nowrap;&quot;&gt;&lt;span style=&quot;font-size: 10px;&quot;&gt;&lt;b&gt;Completed&amp;nbsp; &amp;nbsp; &amp;nbsp; &amp;nbsp; &amp;nbsp; &amp;nbsp; &amp;nbsp; &amp;nbsp; &amp;nbsp; &amp;nbsp; :&amp;nbsp; 1&lt;/b&gt;&lt;/span&gt;&lt;/span&gt;&lt;/div&gt;&lt;div&gt;&lt;span style=&quot;text-wrap: nowrap;&quot;&gt;&lt;span style=&quot;font-size: 10px; background-color: rgb(255, 255, 0);&quot;&gt;&lt;b&gt;Total Progress : 11 %&lt;/b&gt;&lt;/span&gt;&lt;/span&gt;&lt;/div&gt;&lt;div&gt;&lt;b style=&quot;font-size: 10px; text-wrap: nowrap;&quot;&gt;Estimated Schedule : 1Q, 25&lt;/b&gt;&lt;span style=&quot;text-wrap: nowrap;&quot;&gt;&lt;span style=&quot;font-size: 10px; background-color: rgb(255, 255, 0);&quot;&gt;&lt;b&gt;&lt;br&gt;&lt;/b&gt;&lt;/span&gt;&lt;/span&gt;&lt;/div&gt;&lt;div&gt;&lt;span style=&quot;text-wrap: nowrap;&quot;&gt;&lt;span style=&quot;font-size: 10px;&quot;&gt;&lt;b&gt;&lt;br&gt;&lt;/b&gt;&lt;/span&gt;&lt;/span&gt;&lt;div&gt;&lt;br&gt;&lt;/div&gt;&lt;div&gt;&lt;div&gt;&lt;div&gt;&lt;br&gt;&lt;/div&gt;&lt;/div&gt;&lt;/div&gt;&lt;div&gt;&lt;br&gt;&lt;/div&gt;&lt;div&gt;&lt;div&gt;&lt;/div&gt;&lt;/div&gt;&lt;/div&gt;" style="text;html=1;align=left;verticalAlign=top;whiteSpace=wrap;rounded=0;fontSize=9;strokeColor=default;dashed=1;" vertex="1" parent="1">
          <mxGeometry x="464" y="1751" width="140" height="59" as="geometry" />
        </mxCell>
        <mxCell id="N-IlC6iHk4Ezfcukmt0L-36" value="&lt;div&gt;&lt;span style=&quot;text-wrap: nowrap;&quot;&gt;&lt;span style=&quot;font-size: 10px;&quot;&gt;&lt;b&gt;Scheduled&amp;nbsp;&lt;/b&gt;&lt;/span&gt;&lt;/span&gt;&lt;b style=&quot;background-color: initial; text-wrap: nowrap; font-size: 10px;&quot;&gt;&amp;amp; Ongoing&lt;/b&gt;&lt;b style=&quot;font-size: 10px; text-wrap: nowrap; background-color: initial;&quot;&gt;&amp;nbsp;:&amp;nbsp; 1&amp;nbsp;&lt;/b&gt;&lt;/div&gt;&lt;div&gt;&lt;span style=&quot;text-wrap: nowrap;&quot;&gt;&lt;span style=&quot;font-size: 10px;&quot;&gt;&lt;b&gt;Completed&amp;nbsp; &amp;nbsp; &amp;nbsp; &amp;nbsp; &amp;nbsp; &amp;nbsp; &amp;nbsp; &amp;nbsp; &amp;nbsp; &amp;nbsp; :&amp;nbsp; 0&lt;/b&gt;&lt;/span&gt;&lt;/span&gt;&lt;/div&gt;&lt;div&gt;&lt;span style=&quot;text-wrap: nowrap;&quot;&gt;&lt;span style=&quot;font-size: 10px; background-color: rgb(255, 255, 0);&quot;&gt;&lt;b&gt;Total Progress : 0 %&lt;/b&gt;&lt;/span&gt;&lt;/span&gt;&lt;/div&gt;&lt;div&gt;&lt;b style=&quot;font-size: 10px; text-wrap: nowrap;&quot;&gt;Estimated Schedule :&amp;nbsp;&lt;/b&gt;&lt;b style=&quot;background-color: initial; text-wrap: nowrap; font-size: 10px;&quot;&gt;1Q, 25&lt;/b&gt;&lt;/div&gt;&lt;div&gt;&lt;div&gt;&lt;br&gt;&lt;/div&gt;&lt;div&gt;&lt;div&gt;&lt;div&gt;&lt;br&gt;&lt;/div&gt;&lt;/div&gt;&lt;/div&gt;&lt;div&gt;&lt;br&gt;&lt;/div&gt;&lt;div&gt;&lt;div&gt;&lt;/div&gt;&lt;/div&gt;&lt;/div&gt;" style="text;html=1;align=left;verticalAlign=top;whiteSpace=wrap;rounded=0;fontSize=9;strokeColor=default;dashed=1;" vertex="1" parent="1">
          <mxGeometry x="464" y="2003" width="140" height="57" as="geometry" />
        </mxCell>
      </root>
    </mxGraphModel>
  </diagram>
</mxfile>
